<?xml version="1.0" standalone="no"?><!DOCTYPE svg PUBLIC "-//W3C//DTD SVG 1.1//EN" "http://www.w3.org/Graphics/SVG/1.1/DTD/svg11.dtd"><svg t="1652790228472" class="icon" viewBox="0 0 1024 1024" version="1.1" xmlns="http://www.w3.org/2000/svg" p-id="2160" xmlns:xlink="http://www.w3.org/1999/xlink" width="200" height="200"><defs><style type="text/css">@font-face { font-family: feedback-iconfont; src: url("//at.alicdn.com/t/font_1031158_u69w8yhxdu.woff2?t=1630033759944") format("woff2"), url("//at.alicdn.com/t/font_1031158_u69w8yhxdu.woff?t=1630033759944") format("woff"), url("//at.alicdn.com/t/font_1031158_u69w8yhxdu.ttf?t=1630033759944") format("truetype"); }
</style></defs><path d="M640.256 719.744c0 15.872 12.8 28.672 28.672 28.672h260.224c15.872 0 28.672-12.8 28.672-28.672s-12.8-28.672-28.672-28.672H668.928c-15.872-0.128-28.672 12.928-28.672 28.672zM929.152 807.808H668.928c-15.872 0-28.672 12.8-28.672 28.672s12.8 28.672 28.672 28.672h260.224c15.872 0 28.672-12.8 28.672-28.672 0-15.616-12.8-28.672-28.672-28.672zM929.152 924.8H668.928c-15.872 0-28.672 12.8-28.672 28.672s12.8 28.672 28.672 28.672h260.224c15.872 0 28.672-12.8 28.672-28.672s-12.8-28.672-28.672-28.672z" p-id="2161" fill="#959ea8"></path><path d="M129.024 912.128c-4.48-9.984-5.76-27.776-5.376-36.608v-0.512c3.968-199.04 170.624-360.96 371.456-360.96 106.24 0 203.008 45.312 271.104 117.632h75.52c-13.824-18.688-29.184-36.608-46.208-53.12-49.152-48-108.16-82.688-172.16-102.656 64.768-42.112 107.776-115.072 107.776-198.016 0-130.176-105.856-236.032-236.032-236.032S259.072 147.712 259.072 277.888c0 82.944 43.008 155.904 107.776 198.016-64.128 19.84-123.008 54.528-172.16 102.4C114.176 656.768 68.48 761.6 66.176 873.472c-0.128 4.992-0.768 37.376 10.496 62.336 16.64 36.736 57.984 46.08 79.488 45.696l424.448 0.384v-57.344l-424.832-0.384c-0.128 0-21.76-0.896-26.752-12.032z m187.392-634.24c0-98.56 80.128-178.688 178.688-178.688s178.688 80.128 178.688 178.688-80.128 178.688-178.688 178.688-178.688-80.128-178.688-178.688z" p-id="2162" fill="#959ea8"></path></svg>